<?xml version="1.0" standalone="no"?>
<!DOCTYPE svg PUBLIC "-//W3C//DTD SVG 20010904//EN"
        "http://www.w3.org/TR/2001/REC-SVG-20010904/DTD/svg10.dtd">
<svg version="1.0" xmlns="http://www.w3.org/2000/svg"
     viewBox="0 0 300.000000 50.000000"
     preserveAspectRatio="xMidYMid meet">

    <g transform="translate(0.000000,50.000000) scale(0.100000,-0.100000)"
       fill="#000000" stroke="none">
        <path d="M0 250 l0 -250 70 0 70 0 0 250 0 250 -70 0 -70 0 0 -250z"/>
        <path d="M230 440 l0 -60 70 0 70 0 0 60 0 60 -70 0 -70 0 0 -60z"/>
        <path d="M460 250 l0 -250 133 0 c159 0 190 11 225 80 28 56 28 94 0 150 -30
58 -72 80 -155 80 l-63 0 0 95 0 95 -70 0 -70 0 0 -250z m234 -72 c18 -29 -4
-53 -53 -56 l-41 -3 0 41 0 41 41 -3 c27 -2 46 -9 53 -20z"/>
        <path d="M1004 489 c-18 -5 -46 -25 -62 -43 -37 -42 -47 -103 -40 -248 5 -106
15 -130 72 -172 26 -20 41 -21 241 -21 200 0 215 1 241 21 51 38 67 68 67 129
0 61 -16 91 -67 129 -23 18 -45 21 -142 25 l-114 3 0 -56 0 -55 86 -3 c70 -2
89 -6 98 -20 8 -13 8 -23 0 -35 -10 -16 -31 -18 -164 -21 -104 -2 -157 1 -166
9 -18 15 -20 219 -2 237 9 9 75 12 235 12 l223 0 0 60 0 60 -237 -1 c-131 0
-252 -5 -269 -10z"/>
        <path d="M1600 441 l0 -61 233 0 c168 0 236 -3 245 -12 16 -16 16 -220 0 -236
-8 -8 -62 -12 -175 -12 l-163 0 0 95 0 95 -70 0 -70 0 0 -155 0 -156 264 3
c249 3 266 4 292 24 65 48 69 62 69 224 0 162 -4 176 -69 224 -26 20 -43 21
-292 24 l-264 3 0 -60z"/>
        <path d="M2360 375 l125 -125 -125 -125 -125 -125 95 0 95 0 95 95 95 95 95
-95 95 -95 95 0 95 0 -125 125 -125 125 125 125 125 125 -95 0 -95 0 -95 -95
-95 -95 -95 95 -95 95 -95 0 -95 0 125 -125z"/>
        <path d="M230 155 l0 -155 70 0 70 0 0 155 0 155 -70 0 -70 0 0 -155z"/>
    </g>
</svg>
